# xmcd
#
# Track frame offsets: 
#        150
#        33453
#        64939
#        86201
#        166611
#        191711
#        222262
#        257492
#        281914
#        314799
#
# Disc length: 4619 seconds
#
# Revision: 0
# Processed by: cddbd v1.5.2PL0 Copyright (c) Steve Scherf et al.
# Submitted via: ExactAudioCopyFreeDBPlugin 1.0
#
DISCID=9812090a
DTITLE=Lonnie Holley - MITH
DYEAR=2018
DGENRE=Avantgarde
TTITLE0=I’m A Suspect
TTITLE1=Back For Me
TTITLE2=How Far Is Spaced-Out?
TTITLE3=I Snuck Off the Slave Ship
TTITLE4=I Woke Up In A Fucked-Up America
TTITLE5=Copying The Rock
TTITLE6=Coming Back (From The Distance Between the Spaces Of Time)
TTITLE7=There Was Always Water
TTITLE8=Down In The Ghostness Of Darkness
TTITLE9=Sometimes I Wanna Dance 
EXTD=
EXTT0=
EXTT1=
EXTT2=
EXTT3=
EXTT4=
EXTT5=
EXTT6=
EXTT7=
EXTT8=
EXTT9=
PLAYORDER=
